<?xml version="1.0" standalone="no"?>
<!DOCTYPE svg PUBLIC "-//W3C//DTD SVG 20010904//EN"
 "http://www.w3.org/TR/2001/REC-SVG-20010904/DTD/svg10.dtd">
<svg version="1.0" xmlns="http://www.w3.org/2000/svg"
 width="1024.000000pt" height="981.000000pt" viewBox="0 0 1024.000000 981.000000"
 preserveAspectRatio="xMidYMid meet">
<metadata>
Created by potrace 1.16, written by Peter Selinger 2001-2019
</metadata>
<g transform="translate(0.000000,981.000000) scale(0.100000,-0.100000)"
fill="#000000" stroke="none">
<path d="M0 4905 l0 -4905 5120 0 5120 0 0 4905 0 4905 -5120 0 -5120 0 0
-4905z m5988 3446 c18 -6 45 -23 60 -39 41 -44 65 -53 160 -58 120 -7 121 -8
175 -59 39 -36 55 -45 85 -45 48 -1 118 -33 126 -57 9 -28 93 -63 150 -63 19
0 38 -10 57 -32 16 -18 29 -36 29 -39 0 -9 48 -26 93 -34 52 -8 87 -25 87 -42
0 -7 9 -13 20 -13 21 0 54 -27 128 -104 129 -134 149 -155 177 -187 17 -19 47
-47 68 -63 21 -15 43 -38 49 -51 6 -13 22 -29 37 -36 31 -16 71 -59 71 -76 0
-7 22 -27 49 -45 27 -18 57 -48 67 -67 10 -18 29 -40 41 -48 27 -18 53 -67 53
-99 0 -36 21 -76 62 -116 26 -25 38 -45 38 -65 0 -56 22 -108 65 -150 36 -37
43 -50 48 -97 5 -46 11 -61 45 -95 26 -27 44 -57 52 -88 7 -27 14 -56 17 -65
2 -10 23 -42 46 -70 l42 -53 0 -258 0 -257 -37 -38 c-56 -55 -73 -75 -74 -84
-1 -4 -2 -27 -3 -50 0 -23 -4 -38 -8 -35 -8 9 -13 86 -14 252 0 72 -5 144 -11
160 -19 55 -31 75 -50 80 -10 3 -26 7 -36 10 -22 6 -62 -25 -62 -49 0 -9 -4
-16 -10 -16 -6 0 -10 -98 -10 -274 l0 -274 -35 -26 c-55 -42 -65 -71 -65 -186
0 -102 -9 -140 -34 -140 -25 0 -76 -57 -76 -85 0 -42 23 -75 117 -172 73 -76
88 -97 90 -126 2 -46 40 -124 64 -130 10 -3 19 -12 19 -21 0 -9 6 -16 13 -16
8 0 7 -4 -3 -10 -10 -7 -11 -10 -2 -10 9 0 11 -16 8 -59 -2 -33 -7 -65 -11
-71 -8 -12 42 -89 62 -97 7 -3 13 -11 13 -19 0 -7 8 -17 18 -23 15 -9 17 -34
20 -267 l3 -257 -33 -32 c-18 -18 -40 -41 -49 -52 -33 -41 -50 -145 -29 -182
7 -13 7 -22 0 -26 -5 -3 -10 -16 -10 -29 0 -13 -12 -31 -28 -43 -37 -27 -62
-106 -63 -197 -1 -81 -21 -111 -67 -100 -15 4 -30 9 -34 13 -4 3 -10 74 -14
156 -8 159 -9 199 -7 335 2 155 -8 480 -15 480 -4 0 -13 13 -20 29 -7 16 -21
31 -31 34 -11 3 -24 25 -35 63 -27 92 -35 108 -62 127 -43 32 -109 -12 -120
-81 -9 -59 4 -172 21 -172 18 0 45 -45 45 -76 0 -25 -32 -64 -52 -64 -4 0 -8
-6 -8 -13 0 -8 -7 -29 -17 -47 -9 -18 -18 -53 -20 -78 -4 -42 -24 -78 -37 -65
-3 4 -6 -1 -6 -10 0 -10 -6 -17 -14 -17 -8 0 -28 -19 -43 -42 -16 -24 -44 -50
-63 -60 -33 -15 -36 -15 -45 0 -5 10 -11 24 -13 32 -3 16 -5 651 -2 763 3 82
-16 152 -45 166 -45 21 -82 21 -101 -2 -31 -36 -41 -60 -53 -123 -18 -91 -52
-191 -74 -215 -34 -36 -45 -86 -40 -169 5 -75 5 -76 -22 -94 -16 -10 -38 -29
-50 -42 -19 -21 -24 -22 -35 -10 -6 9 -9 20 -5 26 4 6 -11 29 -33 50 -72 72
-77 84 -74 190 2 138 -4 160 -58 187 -43 21 -44 21 -79 3 -20 -10 -53 -34 -73
-53 -85 -80 -140 -40 -130 94 2 21 -24 44 -63 56 -33 10 -53 52 -54 112 l-1
34 60 -6 c35 -4 62 -3 65 3 4 6 22 17 41 25 19 8 34 18 34 23 0 4 16 14 35 22
19 8 35 18 35 22 0 5 4 7 8 4 5 -3 21 2 36 10 16 7 40 14 54 14 29 0 92 44 92
66 0 7 7 14 15 14 8 0 15 4 15 8 0 5 36 45 80 90 44 45 82 93 86 107 3 14 10
25 15 25 5 0 9 7 9 15 0 8 12 21 28 29 36 19 52 77 50 185 -1 56 3 86 10 89
20 6 84 75 94 101 5 14 6 42 3 63 -4 20 -3 43 1 49 16 27 1 273 -17 285 -5 3
-9 14 -9 25 0 10 -4 19 -10 19 -5 0 -10 23 -10 50 0 28 -4 58 -9 68 -5 9 -15
32 -21 50 -7 17 -16 32 -21 32 -5 0 -9 10 -9 23 0 26 -21 77 -32 77 -5 0 -8
19 -8 43 0 31 -3 38 -10 27 -8 -12 -10 -9 -10 13 0 15 -5 27 -11 27 -5 0 -7 5
-4 10 3 6 -4 10 -17 10 -15 0 -27 -8 -33 -22 -17 -40 -54 -34 -107 17 l-47 45
-74 0 c-93 0 -182 -16 -209 -38 -121 -98 -131 -125 -136 -372 -3 -136 0 -200
10 -240 8 -30 13 -75 13 -100 -1 -26 4 -50 12 -58 12 -12 18 -56 13 -92 -1 -8
-10 -25 -20 -37 -10 -13 -21 -41 -25 -63 -6 -33 -2 -48 18 -83 21 -35 34 -45
73 -56 83 -25 114 -12 159 67 11 17 23 32 29 32 5 0 6 31 2 74 -5 57 -4 77 7
83 7 4 19 28 27 53 8 25 22 63 32 85 23 52 25 210 3 239 -8 11 -15 32 -15 47
0 15 -7 34 -15 43 -8 8 -15 21 -15 29 0 21 -29 30 -36 12 -4 -10 -21 -15 -54
-15 -43 0 -49 3 -52 23 -2 12 -2 32 0 44 10 56 122 75 184 31 59 -42 80 -63
89 -86 5 -13 17 -26 27 -29 31 -8 64 -78 89 -188 6 -30 33 -73 66 -107 9 -10
17 -27 17 -38 0 -11 4 -20 8 -20 14 0 28 -114 18 -148 -5 -18 -13 -32 -17 -32
-5 0 -9 -6 -9 -13 0 -7 -16 -21 -35 -30 -35 -17 -39 -25 -49 -100 -7 -54 -65
-167 -86 -167 -8 0 -23 -12 -33 -27 -21 -35 -74 -93 -84 -93 -4 0 -19 -11 -33
-25 -69 -68 -103 -95 -118 -95 -10 0 -41 -13 -70 -28 -98 -51 -167 -85 -211
-106 -24 -12 -57 -34 -74 -51 -22 -22 -38 -29 -59 -26 -16 1 -36 -3 -44 -10
-20 -17 -441 -16 -504 1 -50 14 -122 45 -160 71 -32 21 -66 29 -146 34 -40 3
-71 10 -80 20 -9 8 -19 15 -24 15 -5 0 -16 7 -24 16 -9 8 -24 17 -33 19 -10 2
-38 13 -63 24 -25 11 -53 21 -62 21 -9 0 -28 11 -42 25 -14 14 -29 25 -35 25
-5 0 -19 16 -31 35 -12 19 -28 35 -36 35 -8 0 -14 4 -14 8 0 5 -18 26 -41 48
-120 115 -161 152 -198 182 -23 18 -50 51 -61 72 -11 21 -28 41 -37 44 -25 8
-33 109 -19 216 4 30 4 52 0 48 -4 -4 -13 -3 -20 3 -9 7 -14 4 -20 -13 -4 -13
-15 -29 -25 -36 -10 -7 -16 -18 -13 -25 4 -12 -14 -35 -58 -74 -33 -30 -41
-46 -31 -62 6 -9 7 -28 2 -46 -4 -16 -12 -49 -18 -71 -14 -52 -14 -84 -1 -84
6 0 10 -7 10 -16 0 -17 57 -44 110 -51 32 -5 70 -34 70 -55 0 -4 7 -8 15 -8 8
0 15 -4 15 -10 0 -5 4 -10 10 -10 15 0 50 -32 44 -41 -2 -4 16 -22 41 -40 25
-18 45 -36 45 -41 0 -4 6 -8 13 -8 6 0 31 -20 54 -44 43 -45 43 -66 0 -66 -39
0 -67 -50 -67 -119 0 -41 -3 -51 -17 -53 -52 -4 -78 -15 -114 -49 -17 -16 -37
-29 -44 -29 -22 0 -75 -31 -75 -45 0 -13 -20 -25 -55 -31 -28 -6 -378 -4 -386
2 -4 2 -17 24 -29 49 -14 29 -28 45 -40 45 -11 0 -30 5 -44 11 -20 10 -33 8
-69 -10 -25 -12 -49 -30 -53 -39 -4 -9 -10 -55 -13 -102 -6 -81 -7 -85 -29
-83 -12 2 -28 7 -35 13 -110 90 -137 114 -138 119 0 3 -3 15 -5 26 -2 11 -6
35 -8 52 -3 34 -49 113 -66 113 -13 0 -30 67 -30 121 0 43 -18 99 -32 99 -4 0
-14 7 -22 15 -26 26 -81 9 -114 -34 -48 -63 -51 -79 -53 -286 -1 -215 -3 -221
-60 -220 l-34 0 -3 55 c-3 67 -23 112 -59 136 -53 34 -52 28 -53 366 0 305 -1
317 -22 357 -12 22 -31 44 -42 48 -26 9 -92 6 -172 -8 -59 -10 -62 -13 -77
-50 -9 -22 -11 -41 -6 -45 27 -16 -3 -124 -35 -124 -31 0 -76 -93 -76 -159 0
-10 -22 -43 -50 -72 l-50 -53 0 -140 c0 -78 -4 -155 -9 -173 -5 -17 -30 -51
-55 -76 -41 -39 -46 -48 -46 -88 0 -24 -1 -248 -1 -498 0 -495 -2 -477 58
-528 48 -40 53 -75 53 -384 0 -318 1 -324 67 -378 l35 -29 -1 -93 c-1 -51 -6
-98 -11 -103 -5 -5 -27 -9 -47 -9 -27 1 -43 9 -62 30 -14 15 -43 39 -63 53
-21 14 -38 30 -38 37 0 11 -25 36 -78 82 -18 15 -26 35 -32 86 -9 75 -26 103
-78 133 -35 19 -60 14 -92 -18 -30 -30 -30 -32 -30 -140 0 -119 -10 -155 -46
-164 -27 -7 -74 9 -74 25 0 12 -58 69 -70 69 -10 0 -50 113 -50 142 0 15 -16
40 -42 67 -40 40 -43 47 -51 119 -4 42 -7 92 -7 110 2 84 -115 147 -167 90
-17 -20 -22 -47 -33 -183 -7 -88 -14 -161 -16 -163 -6 -8 -54 28 -104 79 -30
31 -67 64 -82 74 -25 15 -28 24 -28 69 0 58 -25 107 -77 151 -33 27 -33 27
-34 123 -1 119 -14 161 -58 184 -19 9 -42 34 -55 59 -13 24 -32 46 -42 50 -39
15 -82 9 -112 -16 -26 -22 -31 -35 -38 -93 -6 -62 -10 -70 -49 -107 -24 -22
-46 -50 -49 -61 -4 -12 -20 -27 -36 -34 -17 -7 -30 -16 -30 -21 0 -5 -7 -9
-15 -9 -9 0 -18 -7 -22 -16 -17 -44 -24 33 -24 245 l0 229 38 39 c35 36 63 96
63 136 0 23 33 77 47 77 15 0 43 51 43 78 0 11 7 25 15 32 8 7 15 23 15 36 0
13 15 41 33 61 18 21 39 52 46 68 7 17 17 38 22 47 5 10 9 31 9 47 0 22 11 42
39 70 39 40 53 77 44 121 -5 26 13 51 57 80 26 18 55 79 65 134 4 27 18 50 44
75 47 45 61 71 61 111 0 43 24 96 50 110 27 14 50 68 50 114 0 47 19 86 42 86
10 0 18 7 18 15 0 8 4 15 8 15 14 0 52 80 52 108 0 29 30 70 125 171 105 113
335 341 343 341 11 0 82 76 82 87 0 6 18 22 40 37 22 14 40 30 40 35 0 5 8 11
18 14 9 4 35 13 57 21 22 9 46 16 52 16 13 0 39 19 78 55 36 35 94 45 246 45
172 0 211 -9 262 -61 29 -30 46 -39 71 -39 47 0 94 -19 101 -39 9 -29 81 -57
163 -64 29 -2 55 0 58 4 3 5 13 9 23 9 23 0 61 33 61 53 0 9 5 19 10 22 6 3
10 29 10 57 0 43 5 55 28 78 73 69 72 66 72 299 0 203 1 212 21 229 59 47 63
58 75 182 7 84 21 124 54 159 37 39 51 71 54 133 2 36 9 52 27 67 13 11 27 20
32 21 16 0 47 67 47 101 0 36 19 89 32 89 13 0 76 68 83 90 3 11 13 20 21 20
8 0 14 5 14 10 0 6 6 10 13 10 6 0 26 17 42 37 17 20 43 49 59 64 55 52 61 59
82 81 12 13 37 37 55 54 19 17 44 41 56 55 11 13 55 57 97 97 42 41 76 78 76
82 0 13 56 36 125 51 47 10 68 21 95 50 38 39 72 49 188 54 82 4 115 18 135
60 14 29 22 35 64 41 26 4 166 4 310 0 l262 -7 48 25 c26 13 63 40 81 60 l34
36 171 0 c95 0 187 -4 205 -9z m-863 -3721 c3 -5 24 -10 46 -10 21 0 39 -3 39
-8 0 -4 13 -13 28 -20 33 -14 54 -33 104 -94 33 -39 46 -47 98 -58 66 -14 97
-7 141 33 13 13 57 33 98 46 63 20 80 22 106 12 17 -6 38 -11 47 -11 22 0 65
-24 86 -47 22 -26 54 -42 89 -47 15 -1 45 -15 66 -29 21 -14 41 -27 45 -29 11
-4 72 -134 72 -153 0 -9 12 -28 26 -43 39 -41 71 -94 79 -132 4 -19 20 -56 36
-81 16 -25 29 -53 29 -62 0 -10 4 -17 9 -17 8 0 51 -93 51 -111 0 -5 14 -28
30 -51 17 -22 30 -49 30 -60 0 -10 5 -18 10 -18 6 0 10 -9 10 -20 0 -11 3 -20
8 -20 10 0 32 -50 32 -72 0 -10 4 -18 9 -18 10 0 48 -76 56 -112 3 -15 11 -33
19 -41 8 -8 24 -35 36 -61 12 -25 26 -46 30 -46 4 0 15 -18 25 -40 11 -25 35
-51 66 -72 26 -18 50 -43 54 -55 7 -27 53 -53 95 -53 33 0 90 -25 90 -39 0
-47 -46 -69 -167 -81 -55 -5 -102 -14 -109 -22 -8 -7 -18 -38 -24 -68 -6 -30
-18 -61 -27 -67 -20 -15 -53 -17 -53 -3 0 6 -7 10 -15 10 -8 0 -19 16 -25 40
-6 24 -17 40 -25 40 -8 0 -15 5 -15 10 0 6 -6 10 -14 10 -15 0 -26 -21 -26
-52 0 -22 -14 -39 -48 -57 -48 -26 -62 6 -67 151 -2 42 -6 81 -10 87 -3 6 -24
20 -46 32 -44 22 -59 50 -59 108 0 73 -35 121 -87 121 -8 0 -13 14 -13 38 0
21 -5 65 -12 96 -9 47 -16 60 -37 69 -39 17 -71 59 -71 92 0 8 -7 15 -16 15
-8 0 -21 6 -29 13 -7 6 -22 20 -34 29 -20 17 -21 25 -21 312 l0 295 -27 19
c-37 26 -67 12 -82 -38 -6 -20 -11 -102 -11 -181 0 -164 -3 -183 -33 -196 -18
-8 -27 -3 -59 29 -20 21 -44 38 -53 38 -8 0 -22 15 -31 33 -9 17 -36 48 -60
67 -25 19 -52 47 -61 61 -9 15 -28 34 -43 42 -43 26 -90 73 -90 91 0 9 -4 16
-9 16 -15 0 -85 73 -103 108 -9 17 -24 32 -33 32 -19 0 -31 11 -63 56 -12 17
-35 37 -51 44 -17 7 -36 25 -43 41 -7 16 -16 29 -20 29 -5 0 -8 5 -8 11 0 14
-41 48 -57 49 -18 0 -16 28 2 47 9 8 28 19 43 23 37 11 40 11 47 0z m-254 -91
c20 -22 41 -39 45 -39 5 0 15 -9 22 -21 7 -12 16 -18 19 -15 4 3 17 -10 30
-29 13 -19 30 -35 39 -35 8 0 19 -11 25 -24 6 -13 22 -30 35 -37 13 -7 24 -17
24 -23 0 -12 50 -66 61 -66 4 0 39 -32 76 -71 37 -40 77 -81 89 -93 11 -12 25
-29 30 -39 6 -10 43 -44 83 -77 41 -33 71 -60 67 -60 -4 0 13 -19 38 -43 25
-23 46 -48 46 -55 0 -6 4 -12 9 -12 5 0 13 -9 16 -20 3 -11 13 -20 21 -20 7 0
19 -9 26 -20 7 -11 18 -20 24 -20 6 0 23 -18 38 -40 14 -22 30 -40 34 -40 11
0 202 -183 202 -194 0 -5 18 -26 40 -47 22 -21 40 -45 40 -53 0 -8 5 -18 10
-21 6 -3 10 -17 10 -31 0 -13 5 -24 10 -24 6 0 10 -7 10 -15 0 -25 22 -63 39
-68 9 -2 23 -23 30 -48 27 -89 43 -125 66 -151 13 -16 28 -28 33 -28 16 0 37
-63 36 -110 -1 -80 -39 -170 -70 -170 -13 0 -34 49 -34 79 -1 15 -7 51 -14 81
-12 51 -15 55 -50 65 -40 11 -68 38 -61 58 8 23 -19 45 -48 40 -53 -10 -41
-73 19 -95 30 -11 31 -12 17 -39 -13 -25 -17 -28 -36 -18 -12 7 -31 22 -42 36
-17 21 -31 24 -104 29 -103 6 -122 23 -148 132 -8 35 -56 68 -135 92 -67 21
-118 55 -118 80 0 5 -6 10 -14 10 -8 0 -16 7 -20 15 -3 8 -17 20 -31 27 -14 6
-25 15 -25 19 0 12 -85 99 -97 99 -5 0 -16 12 -24 27 -20 38 -81 103 -96 103
-7 0 -13 4 -13 10 0 15 -95 107 -119 115 -11 3 -21 13 -21 21 0 8 -4 14 -10
14 -5 0 -10 7 -10 15 0 8 -4 15 -10 15 -5 0 -20 11 -34 25 -14 14 -32 25 -41
25 -9 0 -14 4 -11 9 12 19 -34 53 -89 65 -61 15 -74 8 -51 -26 9 -12 16 -31
16 -42 0 -28 41 -84 67 -90 12 -4 30 -21 42 -38 11 -18 32 -42 47 -53 41 -30
64 -57 64 -75 0 -10 21 -30 48 -47 26 -16 54 -42 62 -59 19 -37 35 -54 52 -54
7 0 24 -14 38 -31 46 -55 66 -74 97 -90 20 -11 33 -27 37 -46 4 -18 17 -33 34
-41 39 -17 82 -57 82 -75 0 -20 35 -45 83 -58 36 -9 37 -11 37 -54 0 -24 -4
-47 -10 -50 -15 -9 -13 -235 3 -268 10 -22 67 -58 99 -63 4 -1 12 -2 16 -3 11
-1 44 -59 59 -101 38 -105 32 -401 -10 -510 -11 -30 -23 -57 -26 -60 -11 -10
-31 -50 -31 -62 0 -7 -9 -24 -20 -38 -11 -14 -20 -33 -20 -43 0 -25 -62 -116
-83 -123 -10 -3 -34 -23 -54 -45 -41 -44 -82 -59 -166 -59 -60 0 -93 11 -114
39 -17 23 -16 41 7 89 11 22 20 48 20 57 0 17 38 77 52 83 5 2 15 20 23 39 12
29 14 84 9 331 -6 293 -13 362 -38 362 -14 0 -46 73 -46 103 0 9 -9 40 -20 69
-19 51 -20 55 -3 118 15 62 15 67 -2 103 -14 30 -23 37 -46 37 -16 0 -29 5
-29 10 0 6 -15 10 -34 10 -46 0 -86 -40 -87 -89 -5 -140 1 -164 56 -256 13
-22 24 -47 24 -56 1 -8 10 -34 21 -57 11 -22 20 -45 20 -50 0 -5 9 -17 20 -27
11 -10 20 -24 20 -32 0 -7 3 -13 8 -13 37 0 49 -315 16 -428 -11 -38 -28 -68
-50 -89 -19 -17 -34 -41 -34 -52 0 -32 -62 -160 -81 -166 -9 -3 -40 -30 -68
-60 -29 -30 -56 -55 -61 -55 -4 0 -20 -13 -33 -30 -14 -16 -30 -30 -36 -30 -6
0 -11 -7 -11 -15 0 -32 -49 -49 -140 -49 -74 -1 -91 2 -110 19 -12 11 -24 18
-27 17 -2 -2 -17 7 -31 20 -15 13 -47 29 -72 37 -82 24 -101 34 -132 64 -40
41 -66 91 -74 145 -5 32 -12 46 -25 49 -11 3 -19 12 -19 20 0 8 -4 11 -10 8
-5 -3 -10 2 -10 12 0 11 -5 24 -11 30 -8 8 -11 51 -10 122 2 135 15 165 74
170 20 1 37 -2 37 -7 0 -5 10 -12 23 -15 18 -5 28 -23 51 -96 30 -97 48 -121
89 -121 35 0 40 20 35 163 -3 113 -4 116 -36 156 -50 62 -59 94 -67 231 -5 95
-12 136 -28 173 -12 26 -25 47 -29 47 -9 0 -38 55 -44 83 -2 12 -4 96 -4 187
-1 145 2 170 19 203 11 21 28 46 39 55 35 31 53 80 56 160 4 72 23 133 47 147
16 10 57 108 64 153 4 26 12 42 21 42 8 0 14 4 14 10 0 5 10 18 22 29 22 21
48 82 48 114 0 10 9 27 20 39 11 12 20 31 20 41 0 19 -34 57 -52 57 -4 0 -8 9
-8 20 0 11 -9 34 -20 52 -11 18 -20 42 -20 53 0 22 -27 104 -39 120 -5 5 -11
40 -15 76 -6 59 -3 73 19 117 14 28 37 60 50 70 14 11 25 24 25 30 0 5 23 21
51 35 46 22 59 24 137 20 86 -5 88 -6 123 -44z m-764 -1958 c41 -12 94 -63
108 -106 11 -29 10 -36 -9 -57 -12 -13 -32 -29 -46 -36 -14 -8 -38 -31 -55
-52 -16 -20 -43 -43 -60 -49 -16 -6 -40 -28 -53 -49 -13 -20 -38 -44 -55 -53
-18 -9 -38 -27 -46 -41 -13 -23 -13 -33 3 -89 10 -35 30 -88 44 -118 18 -39
25 -74 27 -130 4 -95 -13 -137 -61 -146 -53 -9 -144 17 -144 41 0 16 -21 56
-34 65 -5 4 -8 138 -8 298 0 284 6 351 33 351 5 0 9 6 9 14 0 7 21 31 48 52
51 42 82 73 82 84 0 26 149 40 217 21z"/>
<path d="M4968 6379 c-16 -11 -28 -26 -28 -33 0 -7 -18 -28 -41 -47 -74 -62
-79 -66 -79 -78 0 -6 -5 -11 -11 -11 -6 0 -9 -9 -6 -20 3 -13 -1 -24 -14 -30
-20 -11 -26 -40 -8 -40 6 0 3 -7 -5 -16 -21 -20 -20 -40 1 -48 12 -5 14 -9 5
-18 -7 -7 -12 -19 -12 -27 0 -8 -15 -44 -33 -80 -19 -36 -39 -85 -47 -108 -7
-24 -17 -43 -22 -43 -4 0 -8 -13 -8 -30 0 -16 -5 -30 -10 -30 -7 0 -10 -42 -9
-119 1 -103 4 -120 20 -132 10 -7 19 -21 19 -29 0 -23 23 -69 37 -74 7 -3 26
26 48 72 20 42 41 87 47 100 16 32 59 29 97 -7 17 -16 31 -36 31 -44 0 -9 5
-17 11 -19 5 -2 -8 -15 -30 -28 -30 -19 -40 -33 -45 -60 -16 -94 1 -176 45
-223 10 -11 19 -26 19 -33 0 -6 17 -20 38 -30 56 -28 266 -25 337 6 11 4 28
11 38 14 9 3 20 14 24 23 3 10 13 26 20 35 8 9 12 22 8 27 -3 6 -3 11 2 11 13
0 33 76 33 125 0 26 -8 59 -20 80 -20 35 -20 35 1 71 15 28 22 68 30 175 10
132 9 143 -12 211 -26 83 -34 98 -59 98 -19 0 -30 -19 -30 -49 0 -32 -39 -71
-70 -71 -58 0 -65 80 -18 212 12 31 37 37 214 44 117 5 122 6 133 30 24 54 4
114 -55 161 -19 15 -46 38 -60 50 -50 45 -77 53 -193 53 -62 0 -112 -4 -116
-10 -3 -5 -17 -10 -31 -10 -14 0 -33 -4 -43 -9 -13 -7 -21 -5 -31 10 -19 26
-77 25 -112 -2z"/>
<path d="M5776 5036 c-41 -38 -43 -45 -18 -72 19 -21 37 -57 47 -91 13 -46 88
-24 156 45 25 26 56 54 67 62 27 18 28 51 4 73 -15 14 -40 17 -120 17 -101 0
-101 0 -136 -34z"/>
</g>
</svg>
