<?xml version="1.0" standalone="no"?>
<!DOCTYPE svg PUBLIC "-//W3C//DTD SVG 20010904//EN"
 "http://www.w3.org/TR/2001/REC-SVG-20010904/DTD/svg10.dtd">
<svg version="1.0" xmlns="http://www.w3.org/2000/svg"
 width="300.000000pt" height="287.000000pt" viewBox="0 0 300.000000 287.000000"
 preserveAspectRatio="xMidYMid meet">
<metadata>
Created by potrace 1.10, written by Peter Selinger 2001-2011
</metadata>
<g transform="translate(0.000000,287.000000) scale(0.050000,-0.050000)"
fill="#000000" stroke="none">
<path d="M0 2870 l0 -2870 3000 0 3000 0 0 2870 0 2870 -3000 0 -3000 0 0
-2870z m3560 1980 c14 -16 54 -30 90 -30 36 0 76 -13 90 -30 14 -16 41 -30 60
-30 19 0 46 -13 60 -30 14 -16 41 -30 60 -30 19 0 46 -13 60 -30 14 -16 42
-30 64 -30 22 0 130 -89 254 -210 374 -364 619 -938 462 -1080 -39 -36 -40
-35 -40 64 0 99 -36 163 -76 138 -10 -6 -23 -89 -30 -184 -8 -113 -23 -185
-43 -207 -17 -19 -31 -66 -31 -105 0 -45 -11 -76 -30 -83 -45 -17 -37 -39 40
-119 39 -40 70 -85 70 -101 0 -15 14 -39 30 -53 17 -14 30 -53 31 -87 0 -35
13 -80 30 -102 41 -54 40 -317 -1 -351 -16 -14 -30 -54 -30 -90 0 -36 -13 -76
-29 -89 -16 -13 -32 -57 -35 -98 -5 -58 -14 -73 -46 -73 -38 0 -40 15 -46 293
-4 229 -12 298 -35 317 -16 14 -29 41 -29 61 0 52 -31 65 -68 28 -38 -38 -40
-76 -7 -129 20 -32 20 -48 0 -80 -14 -22 -25 -51 -25 -65 0 -14 -29 -57 -64
-96 l-64 -69 -15 70 c-9 39 -11 165 -6 282 9 181 6 215 -22 239 -39 32 -88
-17 -90 -90 0 -22 -13 -63 -29 -91 -16 -27 -29 -73 -29 -102 -1 -28 -19 -68
-41 -88 -34 -30 -40 -31 -40 -6 0 17 -14 43 -32 57 -22 19 -28 45 -19 90 20
110 -85 195 -122 99 -17 -46 -67 -36 -67 14 0 24 -20 64 -43 90 -42 44 -42 46
-5 46 22 0 57 13 80 28 22 16 69 32 105 36 35 4 63 15 62 24 -2 9 19 40 46 69
74 80 140 201 128 232 -6 15 7 48 28 72 54 62 51 217 -6 391 -59 179 -74 204
-99 159 -18 -31 -23 -31 -67 -2 -195 128 -334 -106 -247 -416 15 -56 15 -84 0
-99 -35 -35 -25 -91 20 -115 58 -31 118 26 118 113 0 36 9 71 20 78 11 7 20
48 20 92 0 86 -31 166 -59 149 -9 -6 -27 2 -40 18 -19 22 -15 33 19 51 46 25
180 -55 180 -107 0 -13 18 -60 40 -103 47 -93 52 -187 10 -203 -16 -6 -30 -34
-30 -61 0 -67 -157 -214 -300 -281 -60 -28 -116 -60 -122 -70 -23 -34 -345
-24 -418 12 -36 18 -81 33 -100 33 -146 0 -480 302 -480 433 0 47 -9 90 -20
97 -11 7 -20 0 -20 -16 0 -16 -19 -52 -41 -81 -54 -68 -48 -199 9 -210 54 -10
221 -175 194 -192 -12 -7 -22 -35 -22 -62 0 -27 -11 -49 -25 -49 -14 -1 -47
-18 -75 -40 -72 -56 -277 -56 -325 0 -54 62 -135 25 -135 -61 0 -22 -6 -39
-13 -39 -29 0 -87 68 -87 101 0 19 -14 45 -30 59 -16 14 -30 50 -30 80 0 181
-137 88 -145 -98 -3 -89 -14 -132 -33 -138 -20 -7 -24 1 -16 24 8 20 -2 48
-26 72 -32 32 -40 72 -44 244 l-6 206 -80 0 c-72 0 -81 -5 -86 -54 -4 -29 -19
-64 -35 -77 -16 -13 -29 -38 -29 -55 0 -17 -14 -46 -31 -65 -16 -18 -36 -82
-43 -141 -7 -59 -25 -120 -39 -134 -43 -43 -38 -560 6 -622 24 -34 36 -106 43
-245 6 -132 18 -204 37 -219 42 -35 35 -138 -9 -138 -45 0 -155 111 -183 186
-33 88 -90 64 -97 -41 -8 -115 -144 -99 -144 17 0 19 -13 48 -28 63 -15 15
-32 62 -38 104 -21 156 -114 127 -114 -35 l0 -102 -70 68 c-39 37 -70 83 -70
101 0 19 -13 45 -30 59 -16 14 -30 54 -30 90 0 128 -150 226 -173 112 -6 -32
-42 -88 -79 -124 l-68 -66 0 162 c0 119 8 168 30 186 17 14 30 41 30 60 0 19
13 46 30 60 16 14 30 41 30 61 0 20 8 42 18 48 10 6 60 94 111 196 52 102 101
199 109 215 9 17 51 102 94 190 221 455 614 682 918 530 165 -82 230 -73 230
32 0 24 14 54 30 68 21 17 30 64 31 147 0 76 11 138 30 162 16 21 29 62 30 90
0 28 13 68 30 90 16 21 29 55 29 75 0 20 9 36 20 36 10 0 25 25 33 55 17 73
387 445 441 445 23 0 52 14 66 30 14 17 54 30 90 30 36 0 76 14 90 30 19 23
70 30 209 30 130 0 195 8 222 29 54 41 275 41 309 1z m-439 -2201 c51 -49 127
-65 148 -31 28 46 117 42 218 -9 103 -52 106 -57 253 -353 177 -355 242 -452
321 -479 93 -33 62 -77 -53 -77 -34 0 -55 -15 -68 -50 -22 -59 -50 -64 -79
-15 -20 33 -22 33 -42 0 -33 -55 -59 -41 -59 32 0 41 -15 81 -40 103 -22 20
-40 53 -40 74 0 20 -13 42 -30 49 -16 6 -30 35 -31 64 0 34 -22 71 -60 102
-57 48 -59 55 -59 224 0 107 -9 180 -22 188 -35 22 -57 -32 -58 -135 0 -51 -7
-98 -16 -104 -26 -15 -469 444 -453 469 20 32 110 4 170 -52z m67 -323 c273
-273 364 -378 405 -465 29 -61 62 -117 73 -124 22 -14 25 -123 4 -157 -20 -32
-50 -2 -50 50 0 61 -32 81 -74 47 -26 -21 -34 -22 -41 -2 -5 14 -33 25 -64 25
-43 0 -62 14 -81 59 -13 32 -45 66 -72 75 -26 9 -137 104 -246 211 -186 183
-279 243 -248 161 16 -40 426 -446 451 -446 9 0 11 -31 4 -70 -18 -92 2 -165
49 -179 195 -62 31 -611 -182 -611 -88 0 -93 18 -36 125 55 103 55 335 0 475
-22 56 -38 130 -35 166 4 56 -1 64 -45 64 -77 0 -77 -98 -1 -251 75 -151 78
-246 11 -388 -96 -201 -298 -331 -369 -236 -6 8 -37 29 -69 45 -32 17 -64 44
-72 60 -8 17 -29 58 -47 93 -36 70 -42 142 -15 185 26 41 81 11 105 -58 11
-33 34 -60 49 -60 37 0 37 118 1 171 -15 21 -34 84 -42 138 -8 55 -27 118 -43
140 -42 60 -35 229 12 301 22 33 40 77 40 99 0 21 32 103 72 183 68 138 70
147 39 194 -58 89 -63 241 -10 291 105 97 142 75 527 -311z m-736 -848 c37
-41 37 -42 -70 -140 l-108 -99 25 -75 c34 -103 21 -192 -28 -201 -108 -21
-138 379 -37 495 67 75 160 84 218 20z"/>
<path d="M2844 3672 c-51 -54 -74 -92 -59 -97 19 -7 15 -33 -13 -107 -73 -186
-46 -448 27 -270 29 69 62 79 103 30 22 -27 21 -35 -8 -51 -104 -58 -16 -207
119 -202 118 5 169 55 167 163 -1 40 4 113 11 164 17 118 -19 202 -61 145 -38
-51 -77 -11 -59 60 13 54 40 67 159 78 147 13 17 154 -143 155 -57 0 -116 5
-131 11 -17 6 -63 -27 -112 -79z"/>
<path d="M3380 2922 c0 -72 55 -93 111 -41 68 64 62 79 -31 79 -65 0 -80 -7
-80 -38z"/>
</g>
</svg>
